<svg xmlns="http://www.w3.org/2000/svg" viewBox="0 0 256 256" role="img" aria-label="Reference Board icon">
  <defs>
    <filter id="soft-glow" x="-35%" y="-35%" width="170%" height="170%">
      <feGaussianBlur stdDeviation="13" result="blur"/>
      <feMerge>
        <feMergeNode in="blur"/>
        <feMergeNode in="SourceGraphic"/>
      </feMerge>
    </filter>
  </defs>
  <rect x="38" y="38" width="180" height="180" rx="32" fill="#313131"/>
  <g filter="url(#soft-glow)" opacity=".9">
    <path d="M82 84h18v-9h-27c-13 0-24 11-24 24v70c0 13 11 24 24 24h81l-25-11H73c-7 0-13-6-13-13V99c0-7 6-13 13-13h9Z" fill="#fff"/>
    <path d="M101 71c0-10 8-18 18-18h18c10 0 18 8 18 18h9c9 0 16 7 16 16v26c0 9-7 16-16 16h-72c-9 0-16-7-16-16V87c0-9 7-16 16-16h9Zm27 5a10 10 0 1 0 0 20 10 10 0 0 0 0-20Z" fill="#fff"/>
    <path d="M156 84h27c13 0 24 11 24 24v64l-11-3v-61c0-7-6-13-13-13h-27V84Z" fill="#fff"/>
    <path d="M92 142h55M92 162h50M92 182h34" stroke="#fff" stroke-width="8" stroke-linecap="round"/>
    <path d="M159 150c2-9 11-15 20-12l44 12c9 2 15 11 12 20l-13 49c-2 9-11 15-20 12l-44-12c-9-2-15-11-12-20l13-49Z" fill="#fff"/>
    <path d="M168 153 222 168 209 219 155 204 168 153Z" fill="#313131"/>
    <path d="M173 196 188 183l9 11 24-19 13 30-3 12-58-16v-5Z" fill="#fff"/>
    <circle cx="187" cy="171" r="8" fill="#fff"/>
  </g>
  <g fill="none" stroke="#303030" stroke-linecap="round" stroke-linejoin="round">
    <path d="M82 84h18v-9h-27c-13 0-24 11-24 24v70c0 13 11 24 24 24h81l-25-11H73c-7 0-13-6-13-13V99c0-7 6-13 13-13h9Z" stroke-width="2"/>
    <path d="M101 71c0-10 8-18 18-18h18c10 0 18 8 18 18h9c9 0 16 7 16 16v26c0 9-7 16-16 16h-72c-9 0-16-7-16-16V87c0-9 7-16 16-16h9Zm27 5a10 10 0 1 0 0 20 10 10 0 0 0 0-20Z" stroke-width="2"/>
    <path d="M156 84h27c13 0 24 11 24 24v64l-11-3v-61c0-7-6-13-13-13h-27V84Z" stroke-width="2"/>
    <path d="M92 142h55M92 162h50M92 182h34" stroke="#303030" stroke-width="2"/>
    <path d="M159 150c2-9 11-15 20-12l44 12c9 2 15 11 12 20l-13 49c-2 9-11 15-20 12l-44-12c-9-2-15-11-12-20l13-49Z" stroke-width="2"/>
    <path d="M168 153 222 168 209 219 155 204 168 153Z" stroke="#fff" stroke-width="2"/>
    <path d="M173 196 188 183l9 11 24-19 13 30" stroke="#313131" stroke-width="2"/>
    <circle cx="187" cy="171" r="8" stroke="#313131" stroke-width="2"/>
  </g>
</svg>
